<svg fill="none" height="22" viewBox="0 0 24 22" width="24" xmlns="http://www.w3.org/2000/svg" xmlns:xlink="http://www.w3.org/1999/xlink"><clipPath id="a"><path d="m0 0h24v21.1015h-24z"/></clipPath><g clipPath="url(#a)" fill="#fff"><path d="m19.9022 21.1016c-.9415 0-1.68 0-2.5476 0-4.5047-7.8831.2215.2954-4.2462-7.5323 4.32-7.56924-.7385 1.2923 3.5262-6.20309.48.79385.8676 1.45846 1.2738 2.14154-3.8585 6.75695 1.5508-2.73231-2.3262 4.07995 4.5047 7.8277-.24-.4615 4.32 7.5139z"/><path d="m14.3632 3.323c.4985.88615.8493 1.49538 1.2554 2.19692-4.5046 7.91998.2215-.38769-4.32 7.55078-8.43691 0 1.4769 0-7.10768 0 .42461-.7569.77538-1.4031 1.18154-2.1231h4.65234c4.4861-7.91999-.2585.4246 4.3384-7.6246z"/><path d="m11.7615 14.9724c4.2462 7.3846-.7938-1.3846 3.5077 6.0923-.9046 0-1.68 0-2.5292 0-3.82157-6.6461 1.5877 2.7692-2.2708-3.9692-8.95385 0 .48 0-8.62154 0 .44307-.7939.79384-1.44 1.18153-2.1231z"/><path d="m8.16197 21.1017h-7.495386c-.498461 0-.830769-.5353-.5907689-.9969l.6276919-1.1446h8.750773c3.45232 6-2.34462-4.08 1.23692 2.1231-.97846.0184-1.73539.0184-2.52923.0184z"/><path d="m20.2536 13.5323c4.2461 7.4215.0923.2769 3.6738 6.5539.2585.443-.0738.9969-.5723.9969h-1.3108c-4.5415-7.7908.1846.48-4.3754-7.4216 3.4708-6.09226-2.2707 4.0062 1.3108-2.2892.48.8308.8677 1.4954 1.2739 2.16z"/><path d="m7.7004 6.90464c4.3015-7.532307.14769-.25846 3.7477-6.572307.2584-.443077.8861-.443077 1.1446-.018462l.72 1.163079c-4.52308 7.93846.1846-.35077-4.32 7.56923h-2.51077c.46154-.79385.83077-1.44 1.21847-2.14154z"/></g></svg>